# xmcd CD database file
#
# Track frame offsets:
#	150
#	22264
#	37776
#	51775
#	68663
#	87369
#	110986
#	127622
#	145772
#	160409
#	179689
#	193506
#	219797
#	241458
#	256202
#	271199
#
# Disc length: 3801 seconds
#
# Revision: 0
# Processed by: cddbd v1.4PL0 Copyright (c) Steve Scherf et al.
# Submitted via: CDex 1.40Beta9
#
DISCID=de0ed710
DTITLE=Various Artist - Best In Texas
DYEAR=2001
DGENRE=Country
TTITLE0=Pat Green - Whiskey
TTITLE1=Blue Edmondson - $50 Dollars and a Flask of Crown
TTITLE2=Cooder Graw - Better Days
TTITLE3=Houston Marchman - Wichita Falls
TTITLE4=Corry Morrow - Nashville Blues
TTITLE5=Bruce Robison - What Would Willie Do
TTITLE6=Jason Boland and The Stragglers - St Valentine
TTITLE7=Cross Canadian Ragweed - Look At Me
TTITLE8=The Great Divide - Wild Horses
TTITLE9=Kevin Fowler - If These Walls Could Talk
TTITLE10=Max Stalling - Blue Eyes
TTITLE11=Tommy Alverson - Una Mas Cerveza
TTITLE12=Bill Pekar - Colors Are All the Same
TTITLE13=Sonny Burgess - Tears in the Eyes of Texas
TTITLE14=Clay Blaker - A Day Late and a Darlin' Short
TTITLE15=Bobby Boyd - The Honky Tonk Tree
EXTD=YEAR: 2001 ID3G: 2
EXTT0=
EXTT1=
EXTT2=
EXTT3=
EXTT4=
EXTT5=
EXTT6=
EXTT7=
EXTT8=
EXTT9=
EXTT10=
EXTT11=
EXTT12=
EXTT13=
EXTT14=
EXTT15=
PLAYORDER=
